<?xml version="1.0" standalone="no"?>
<!DOCTYPE svg PUBLIC "-//W3C//DTD SVG 20010904//EN"
 "http://www.w3.org/TR/2001/REC-SVG-20010904/DTD/svg10.dtd">
<svg version="1.0" xmlns="http://www.w3.org/2000/svg"
 width="811.000000pt" height="545.000000pt" viewBox="0 0 811.000000 545.000000"
 preserveAspectRatio="xMidYMid meet">

<g transform="translate(0.000000,545.000000) scale(0.100000,-0.100000)"
fill="#000000" stroke="none">
<path d="M2970 5379 c-127 -11 -238 -68 -336 -170 -63 -66 -77 -87 -116 -180
l-23 -54 -3 -972 -3 -973 -22 -14 c-20 -13 -91 -34 -282 -82 -33 -9 -82 -22
-109 -30 -76 -22 -95 -19 -112 19 -33 72 -99 147 -194 217 -180 132 -431 193
-706 171 -226 -19 -496 -120 -676 -254 -191 -141 -301 -301 -353 -509 -63
-256 89 -555 350 -686 281 -141 646 -156 970 -40 61 22 208 99 275 143 73 49
216 182 267 250 40 53 101 174 121 238 8 29 18 97 21 152 6 98 7 100 35 114
16 7 72 24 125 36 53 13 134 34 181 48 47 13 96 27 110 30 14 3 84 21 155 41
72 20 153 43 180 50 145 40 301 85 380 111 22 7 101 32 175 55 74 23 164 52
200 65 36 13 82 29 102 35 21 6 40 15 43 20 18 29 -40 62 -145 81 -36 7 -70
16 -76 20 -11 9 -229 -51 -334 -92 -30 -12 -66 -23 -80 -26 l-25 -5 3 639 c4
1213 4 1192 29 1240 31 57 83 97 156 119 58 18 105 19 792 19 718 0 731 -1
775 -21 83 -38 128 -88 152 -168 5 -17 9 -260 8 -541 l0 -510 -32 -28 c-33
-27 -173 -118 -252 -162 -22 -13 -43 -29 -47 -36 -3 -8 -21 -44 -39 -81 -17
-37 -33 -82 -33 -100 -2 -30 1 -33 23 -30 32 3 193 81 290 140 192 118 278
193 435 383 58 70 140 223 173 324 56 171 72 263 72 408 0 266 -100 441 -315
547 l-90 45 -230 6 c-298 9 -1867 7 -1965 -2z m-30 -195 c0 -8 -5 -25 -12 -37
-44 -78 -42 -41 -45 -1048 -3 -741 -6 -959 -16 -967 -6 -5 -39 -17 -72 -27
-102 -30 -123 -34 -128 -21 -2 6 -3 425 -3 931 1 894 2 921 21 960 34 70 78
125 132 166 76 57 123 74 123 43z m2244 -10 c68 -32 135 -102 172 -180 26 -53
29 -71 32 -181 4 -122 -11 -229 -44 -333 -22 -67 -120 -262 -146 -290 l-23
-25 -5 445 c-5 408 -7 449 -24 490 -11 25 -23 51 -29 57 -9 12 -4 43 7 43 3 0
30 -12 60 -26z m-3843 -2054 c294 -55 477 -204 519 -420 21 -106 -15 -246 -91
-355 -126 -183 -357 -329 -634 -402 -100 -26 -381 -26 -478 0 -91 24 -209 75
-254 110 -167 127 -237 315 -188 503 44 168 215 349 431 454 138 68 164 77
279 100 102 21 329 26 416 10z"/>
<path d="M980 2955 c-225 -43 -363 -114 -490 -252 -67 -72 -131 -195 -138
-262 -4 -43 -1 -50 23 -69 51 -40 98 -24 117 41 34 117 131 237 248 307 109
65 221 96 377 106 89 5 112 10 131 27 30 28 30 80 0 101 -27 19 -170 20 -268
1z"/>
<path d="M1420 2923 c-25 -9 -50 -46 -50 -75 0 -21 11 -36 53 -66 70 -53 86
-73 101 -124 15 -50 49 -75 88 -65 59 15 70 53 42 146 -30 103 -166 209 -234
184z"/>
<path d="M3537 5056 c-115 -31 -186 -176 -146 -297 18 -54 52 -92 110 -124
l54 -30 270 -5 c452 -8 605 -6 668 9 67 17 127 63 159 125 29 55 30 145 1 201
-31 58 -94 115 -139 126 -64 14 -920 10 -977 -5z m941 -178 c7 -7 12 -25 12
-40 0 -21 -6 -31 -26 -38 -15 -6 -194 -10 -439 -10 -245 0 -424 4 -439 10 -29
11 -34 38 -14 70 12 19 25 20 453 20 330 0 444 -3 453 -12z"/>
<path d="M7650 4561 c-22 -8 -55 -14 -195 -42 -51 -10 -162 -32 -290 -58 -55
-11 -136 -28 -180 -36 -188 -38 -235 -49 -320 -78 -169 -57 -316 -148 -439
-271 -152 -154 -225 -317 -229 -513 l-2 -106 -75 -24 c-66 -21 -333 -93 -345
-93 -3 0 -5 216 -5 481 0 272 -4 478 -9 475 -5 -3 -19 -32 -31 -63 -13 -32
-36 -86 -51 -121 -16 -35 -29 -65 -29 -68 0 -2 -13 -26 -30 -52 l-30 -49 0
-327 0 -326 -27 -11 c-36 -13 -142 -40 -168 -42 -19 -2 -20 6 -25 214 l-5 217
-85 -69 c-47 -38 -89 -69 -94 -69 -4 0 -5 -38 -1 -84 3 -46 3 -125 0 -174 l-7
-89 -122 -38 c-328 -101 -367 -115 -376 -140 -21 -55 -178 -134 -268 -135 -13
0 -55 -14 -93 -30 -77 -34 -193 -46 -208 -22 -9 14 -5 15 -151 -40 -341 -130
-503 -204 -617 -285 -34 -23 -66 -43 -71 -43 -4 0 -8 77 -8 173 l1 172 -30 -3
c-16 -2 -39 -9 -50 -17 -11 -7 -36 -16 -55 -20 -19 -4 -38 -13 -42 -19 -4 -6
-8 -110 -8 -231 l0 -221 -46 -44 c-25 -25 -71 -78 -101 -117 -30 -40 -58 -73
-62 -73 -4 0 -5 138 -3 306 3 168 1 309 -4 314 -8 7 -130 -22 -164 -39 -13 -7
-15 -83 -15 -592 l0 -584 -35 -12 c-19 -7 -48 -12 -65 -12 -16 -1 -61 -7 -100
-15 -38 -7 -115 -21 -170 -31 -136 -24 -357 -80 -420 -106 -11 -4 -48 -19 -83
-33 -60 -24 -176 -89 -197 -111 -46 -47 -57 -112 -29 -162 37 -63 195 -153
349 -197 33 -10 81 -24 107 -32 26 -8 53 -14 61 -14 8 0 37 -6 63 -14 57 -16
174 -43 224 -50 19 -3 78 -13 130 -22 139 -23 292 -43 400 -53 232 -21 345
-31 485 -43 206 -18 1339 -18 1565 0 259 20 499 42 575 53 39 5 106 14 150 19
103 13 197 27 260 39 28 5 88 17 135 26 47 9 107 23 134 31 26 8 55 14 63 14
32 0 252 74 333 112 103 49 163 98 186 154 13 31 13 38 -5 73 -11 21 -39 55
-63 75 -56 49 -197 116 -303 146 -128 35 -282 73 -345 85 -41 7 -130 23 -197
36 l-123 22 0 759 c0 734 -1 758 -19 758 -10 0 -38 -7 -61 -15 -23 -8 -53 -15
-66 -15 -13 0 -25 -1 -26 -2 -2 -2 -5 -379 -8 -838 l-5 -835 -29 -63 c-30 -65
-107 -146 -167 -176 -71 -35 -127 -37 -1204 -34 l-1060 3 -47 24 c-69 35 -133
98 -170 166 -32 59 -33 62 -36 215 -5 197 12 278 95 460 66 144 254 354 403
452 125 83 326 182 514 254 50 19 107 41 126 49 19 7 69 26 110 40 41 15 84
31 95 36 28 12 159 57 235 81 36 11 76 24 90 30 51 21 283 95 430 138 41 12
86 25 100 30 68 22 322 100 375 115 33 9 96 27 140 40 44 13 109 32 145 41 36
9 74 20 85 25 11 4 40 12 65 17 25 6 72 18 105 27 33 9 101 27 150 40 50 12
96 24 104 26 8 2 30 -19 53 -51 67 -95 97 -128 171 -183 251 -188 549 -233
972 -145 55 11 129 26 165 33 74 15 270 55 410 85 52 12 115 25 140 30 88 18
101 23 120 48 29 36 26 87 -6 117 -15 14 -36 25 -48 25 -20 0 -109 -17 -246
-46 -36 -8 -87 -18 -115 -23 -27 -6 -81 -17 -120 -26 -38 -9 -104 -23 -145
-31 -41 -8 -104 -21 -140 -29 -290 -60 -369 -65 -531 -36 -138 25 -219 54
-299 105 -163 106 -240 237 -242 411 -1 103 15 154 81 263 113 188 316 315
613 386 66 15 284 62 453 96 477 96 477 97 491 167 5 27 1 37 -24 63 -25 25
-38 30 -74 29 -24 0 -54 -4 -68 -8z"/>
<path d="M7725 4094 c-90 -21 -186 -42 -220 -48 -16 -3 -59 -11 -95 -19 -36
-8 -122 -26 -192 -41 -70 -14 -147 -30 -170 -35 -24 -5 -79 -17 -123 -26 -44
-9 -98 -20 -120 -25 -22 -5 -76 -16 -120 -25 -110 -23 -124 -30 -141 -70 -13
-31 -13 -39 0 -63 8 -16 22 -34 31 -42 26 -22 38 -20 305 35 36 7 121 24 190
39 69 14 168 35 220 46 52 12 118 25 145 30 28 6 79 16 115 24 36 7 115 23
175 36 131 26 150 34 175 76 27 43 25 56 -12 93 -36 36 -66 38 -163 15z"/>
<path d="M7875 3674 c-52 -11 -176 -38 -230 -49 -33 -7 -98 -21 -145 -30 -47
-9 -101 -21 -120 -26 -19 -5 -60 -13 -90 -19 -30 -5 -120 -23 -200 -40 -156
-33 -194 -41 -310 -63 -96 -19 -126 -31 -139 -56 -26 -47 -3 -113 44 -131 25
-10 105 4 410 69 55 12 134 28 175 37 41 9 104 22 140 30 36 7 121 25 190 39
130 27 215 45 313 66 67 14 87 35 87 90 0 29 -7 43 -31 63 -29 25 -49 29 -94
20z"/>
<path d="M5085 2823 c-27 -9 -62 -20 -76 -25 l-27 -10 2 -361 c1 -349 0 -364
-20 -408 -29 -63 -76 -113 -132 -140 l-47 -24 -743 -3 c-502 -2 -755 1 -782 8
-53 14 -118 66 -156 123 l-30 46 -69 -69 -68 -68 38 -53 c24 -31 64 -68 104
-94 127 -80 62 -75 942 -75 l785 0 64 28 c102 44 121 56 179 116 35 37 64 81
85 129 l31 72 3 413 c4 467 13 424 -83 395z"/>
<path d="M5238 315 c-7 -7 -346 -33 -593 -45 -620 -30 -720 -32 -1107 -26
-224 3 -413 8 -420 11 -18 6 -293 35 -334 35 -29 0 -34 -3 -34 -25 0 -18 7
-26 33 -34 17 -6 73 -24 122 -42 94 -32 132 -44 280 -86 160 -45 334 -80 465
-93 114 -12 520 -11 645 0 159 15 409 62 585 109 19 6 55 15 80 21 25 7 54 15
65 20 29 12 175 60 210 70 86 24 130 46 133 68 3 21 0 22 -61 22 -35 0 -66 -2
-69 -5z"/>
</g>
</svg>
